<svg xmlns="http://www.w3.org/2000/svg" viewBox="0 0 900 550" role="img" aria-label="الشكل 3: منحنى شحن المكثفة عند R=R1">
  <rect width="100%" height="100%" fill="white"/>
  <line x1="135.0" y1="80" x2="135.0" y2="470" stroke="#9ca3af" stroke-width="1"/><line x1="207.8" y1="80" x2="207.8" y2="470" stroke="#9ca3af" stroke-width="1"/><line x1="280.6" y1="80" x2="280.6" y2="470" stroke="#9ca3af" stroke-width="1"/><line x1="353.3" y1="80" x2="353.3" y2="470" stroke="#9ca3af" stroke-width="1"/><line x1="426.1" y1="80" x2="426.1" y2="470" stroke="#9ca3af" stroke-width="1"/><line x1="498.9" y1="80" x2="498.9" y2="470" stroke="#9ca3af" stroke-width="1"/><line x1="571.7" y1="80" x2="571.7" y2="470" stroke="#9ca3af" stroke-width="1"/><line x1="644.4" y1="80" x2="644.4" y2="470" stroke="#9ca3af" stroke-width="1"/><line x1="717.2" y1="80" x2="717.2" y2="470" stroke="#9ca3af" stroke-width="1"/><line x1="790.0" y1="80" x2="790.0" y2="470" stroke="#9ca3af" stroke-width="1"/><line x1="135" y1="470.0" x2="790" y2="470.0" stroke="#9ca3af" stroke-width="1"/><line x1="135" y1="392.0" x2="790" y2="392.0" stroke="#9ca3af" stroke-width="1"/><line x1="135" y1="314.0" x2="790" y2="314.0" stroke="#9ca3af" stroke-width="1"/><line x1="135" y1="236.0" x2="790" y2="236.0" stroke="#9ca3af" stroke-width="1"/><line x1="135" y1="158.0" x2="790" y2="158.0" stroke="#9ca3af" stroke-width="1"/><line x1="135" y1="80.0" x2="790" y2="80.0" stroke="#9ca3af" stroke-width="1"/><line x1="135" y1="470" x2="818" y2="470" stroke="#111827" stroke-width="3"/><line x1="135" y1="470" x2="135" y2="62" stroke="#111827" stroke-width="3"/><polyline points="135.00,470.00 137.05,464.55 139.11,459.19 141.16,453.92 143.21,448.75 145.27,443.67 147.32,438.68 149.37,433.77 151.43,428.95 153.48,424.21 155.53,419.56 157.59,414.99 159.64,410.50 161.69,406.08 163.75,401.75 165.80,397.49 167.85,393.30 169.91,389.19 171.96,385.15 174.01,381.18 176.07,377.28 178.12,373.44 180.17,369.68 182.23,365.98 184.28,362.34 186.33,358.77 188.39,355.26 190.44,351.82 192.49,348.43 194.55,345.10 196.60,341.83 198.65,338.62 200.71,335.46 202.76,332.36 204.81,329.31 206.87,326.32 208.92,323.37 210.97,320.48 213.03,317.64 215.08,314.85 217.13,312.11 219.18,309.42 221.24,306.77 223.29,304.17 225.34,301.62 227.40,299.11 229.45,296.64 231.50,294.22 233.56,291.84 235.61,289.50 237.66,287.20 239.72,284.94 241.77,282.72 243.82,280.54 245.88,278.40 247.93,276.29 249.98,274.23 252.04,272.20 254.09,270.20 256.14,268.24 258.20,266.31 260.25,264.42 262.30,262.56 264.36,260.73 266.41,258.93 268.46,257.17 270.52,255.44 272.57,253.73 274.62,252.06 276.68,250.42 278.73,248.80 280.78,247.21 282.84,245.66 284.89,244.12 286.94,242.62 289.00,241.14 291.05,239.69 293.10,238.26 295.16,236.86 297.21,235.48 299.26,234.12 301.32,232.79 303.37,231.48 305.42,230.20 307.48,228.94 309.53,227.70 311.58,226.48 313.64,225.28 315.69,224.11 317.74,222.95 319.80,221.82 321.85,220.70 323.90,219.61 325.96,218.53 328.01,217.47 330.06,216.43 332.12,215.41 334.17,214.41 336.22,213.42 338.28,212.45 340.33,211.50 342.38,210.56 344.44,209.65 346.49,208.74 348.54,207.86 350.60,206.99 352.65,206.13 354.70,205.29 356.76,204.46 358.81,203.65 360.86,202.85 362.92,202.07 364.97,201.30 367.02,200.54 369.08,199.80 371.13,199.07 373.18,198.35 375.24,197.64 377.29,196.95 379.34,196.27 381.39,195.60 383.45,194.94 385.50,194.30 387.55,193.66 389.61,193.04 391.66,192.43 393.71,191.83 395.77,191.23 397.82,190.65 399.87,190.08 401.93,189.52 403.98,188.97 406.03,188.43 408.09,187.90 410.14,187.38 412.19,186.86 414.25,186.36 416.30,185.86 418.35,185.37 420.41,184.90 422.46,184.43 424.51,183.96 426.57,183.51 428.62,183.06 430.67,182.63 432.73,182.20 434.78,181.77 436.83,181.36 438.89,180.95 440.94,180.55 442.99,180.15 445.05,179.77 447.10,179.39 449.15,179.01 451.21,178.65 453.26,178.28 455.31,177.93 457.37,177.58 459.42,177.24 461.47,176.90 463.53,176.57 465.58,176.25 467.63,175.93 469.69,175.62 471.74,175.31 473.79,175.01 475.85,174.71 477.90,174.42 479.95,174.13 482.01,173.85 484.06,173.57 486.11,173.30 488.17,173.03 490.22,172.77 492.27,172.51 494.33,172.26 496.38,172.01 498.43,171.76 500.49,171.52 502.54,171.29 504.59,171.05 506.65,170.82 508.70,170.60 510.75,170.38 512.81,170.16 514.86,169.95 516.91,169.74 518.97,169.54 521.02,169.34 523.07,169.14 525.13,168.94 527.18,168.75 529.23,168.56 531.29,168.38 533.34,168.20 535.39,168.02 537.45,167.84 539.50,167.67 541.55,167.50 543.61,167.34 545.66,167.17 547.71,167.01 549.76,166.86 551.82,166.70 553.87,166.55 555.92,166.40 557.98,166.25 560.03,166.11 562.08,165.97 564.14,165.83 566.19,165.69 568.24,165.56 570.30,165.42 572.35,165.29 574.40,165.17 576.46,165.04 578.51,164.92 580.56,164.80 582.62,164.68 584.67,164.56 586.72,164.45 588.78,164.33 590.83,164.22 592.88,164.12 594.94,164.01 596.99,163.90 599.04,163.80 601.10,163.70 603.15,163.60 605.20,163.50 607.26,163.41 609.31,163.31 611.36,163.22 613.42,163.13 615.47,163.04 617.52,162.95 619.58,162.86 621.63,162.78 623.68,162.69 625.74,162.61 627.79,162.53 629.84,162.45 631.90,162.37 633.95,162.30 636.00,162.22 638.06,162.15 640.11,162.08 642.16,162.01 644.22,161.94 646.27,161.87 648.32,161.80 650.38,161.73 652.43,161.67 654.48,161.60 656.54,161.54 658.59,161.48 660.64,161.42 662.70,161.36 664.75,161.30 666.80,161.24 668.86,161.18 670.91,161.13 672.96,161.07 675.02,161.02 677.07,160.97 679.12,160.92 681.18,160.86 683.23,160.81 685.28,160.77 687.34,160.72 689.39,160.67 691.44,160.62 693.50,160.58 695.55,160.53 697.60,160.49 699.66,160.44 701.71,160.40 703.76,160.36 705.82,160.32 707.87,160.28 709.92,160.24 711.97,160.20 714.03,160.16 716.08,160.12 718.13,160.09 720.19,160.05 722.24,160.01 724.29,159.98 726.35,159.94 728.40,159.91 730.45,159.88 732.51,159.84 734.56,159.81 736.61,159.78 738.67,159.75 740.72,159.72 742.77,159.69 744.83,159.66 746.88,159.63 748.93,159.60 750.99,159.57 753.04,159.55 755.09,159.52 757.15,159.49 759.20,159.47 761.25,159.44 763.31,159.42 765.36,159.39 767.41,159.37 769.47,159.34 771.52,159.32 773.57,159.30 775.63,159.27 777.68,159.25 779.73,159.23 781.79,159.21 783.84,159.19 785.89,159.17 787.95,159.15 790.00,159.13" fill="none" stroke="#111827" stroke-width="5"/><line x1="135" y1="470" x2="251.4" y2="158.0" stroke="#111827" stroke-width="3" stroke-dasharray="8 6"/><text x="40" y="62" font-size="27" font-family="DejaVu Sans,Arial,sans-serif">u(V)</text><text x="825" y="478" font-size="25" font-family="DejaVu Sans,Arial,sans-serif">t(ms)</text><text x="193.8" y="500" font-size="19" font-family="DejaVu Sans,Arial,sans-serif">2,5</text><text x="97" y="399.0" font-size="19" font-family="DejaVu Sans,Arial,sans-serif">3</text><text x="462.5" y="530" text-anchor="middle" font-size="23" font-family="DejaVu Sans,Arial,sans-serif" direction="rtl">الشكل 3</text>

<line x1="135" y1="158.0" x2="790" y2="158.0" stroke="#2563eb" stroke-width="2.2" stroke-dasharray="8 6"/>
<line x1="251.4" y1="470" x2="251.4" y2="158.0" stroke="#2563eb" stroke-width="2.2" stroke-dasharray="8 6"/>
<text x="590" y="146.0" font-size="20" font-family="DejaVu Sans,Arial,sans-serif" fill="#2563eb">A=E=12V</text>
<text x="251.4" y="528" text-anchor="middle" font-size="20" font-family="DejaVu Sans,Arial,sans-serif" fill="#2563eb">τ₁=4ms</text>
<text x="520" y="250" font-size="20" font-family="DejaVu Sans,Arial,sans-serif" fill="#2563eb">B=1/τ₁=250s⁻¹</text>
</svg>