<svg xmlns="http://www.w3.org/2000/svg" viewBox="0 0 900 550" role="img" aria-label="الشكل 6: اهتزازات حرة متخامدة للتوترين uR وuC">
<rect width="100%" height="100%" fill="white"/>
<line x1="90" y1="455" x2="420" y2="455" stroke="#111827" stroke-width="3"/><line x1="90" y1="455" x2="90" y2="65" stroke="#111827" stroke-width="3"/><line x1="90.0" y1="80" x2="90.0" y2="455" stroke="#e5e7eb" stroke-width="1"/><line x1="134.3" y1="80" x2="134.3" y2="455" stroke="#e5e7eb" stroke-width="1"/><line x1="178.6" y1="80" x2="178.6" y2="455" stroke="#e5e7eb" stroke-width="1"/><line x1="222.9" y1="80" x2="222.9" y2="455" stroke="#e5e7eb" stroke-width="1"/><line x1="267.1" y1="80" x2="267.1" y2="455" stroke="#e5e7eb" stroke-width="1"/><line x1="311.4" y1="80" x2="311.4" y2="455" stroke="#e5e7eb" stroke-width="1"/><line x1="355.7" y1="80" x2="355.7" y2="455" stroke="#e5e7eb" stroke-width="1"/><line x1="400.0" y1="80" x2="400.0" y2="455" stroke="#e5e7eb" stroke-width="1"/><line x1="90" y1="280" x2="418" y2="280" stroke="#111827" stroke-width="2"/><polyline points="90.00,280.00 90.44,274.34 90.89,268.74 91.33,263.20 91.77,257.73 92.22,252.32 92.66,246.99 93.10,241.75 93.55,236.59 93.99,231.53 94.43,226.57 94.88,221.71 95.32,216.96 95.77,212.32 96.21,207.80 96.65,203.40 97.10,199.13 97.54,194.98 97.98,190.97 98.43,187.10 98.87,183.37 99.31,179.79 99.76,176.35 100.20,173.06 100.64,169.92 101.09,166.94 101.53,164.11 101.97,161.45 102.42,158.94 102.86,156.60 103.30,154.42 103.75,152.40 104.19,150.55 104.64,148.87 105.08,147.36 105.52,146.01 105.97,144.83 106.41,143.82 106.85,142.98 107.30,142.30 107.74,141.79 108.18,141.44 108.63,141.27 109.07,141.25 109.51,141.40 109.96,141.70 110.40,142.17 110.84,142.80 111.29,143.57 111.73,144.51 112.17,145.59 112.62,146.82 113.06,148.20 113.51,149.72 113.95,151.38 114.39,153.17 114.84,155.10 115.28,157.16 115.72,159.35 116.17,161.65 116.61,164.08 117.05,166.62 117.50,169.28 117.94,172.04 118.38,174.91 118.83,177.87 119.27,180.93 119.71,184.08 120.16,187.31 120.60,190.63 121.04,194.02 121.49,197.49 121.93,201.02 122.37,204.62 122.82,208.28 123.26,211.98 123.71,215.74 124.15,219.54 124.59,223.38 125.04,227.26 125.48,231.16 125.92,235.09 126.37,239.04 126.81,243.00 127.25,246.97 127.70,250.95 128.14,254.93 128.58,258.91 129.03,262.88 129.47,266.83 129.91,270.77 130.36,274.69 130.80,278.58 131.24,282.44 131.69,286.26 132.13,290.04 132.58,293.79 133.02,297.48 133.46,301.12 133.91,304.71 134.35,308.24 134.79,311.71 135.24,315.11 135.68,318.44 136.12,321.70 136.57,324.88 137.01,327.99 137.45,331.01 137.90,333.95 138.34,336.80 138.78,339.56 139.23,342.23 139.67,344.80 140.11,347.28 140.56,349.65 141.00,351.93 141.44,354.10 141.89,356.17 142.33,358.13 142.78,359.98 143.22,361.73 143.66,363.36 144.11,364.89 144.55,366.30 144.99,367.60 145.44,368.78 145.88,369.85 146.32,370.81 146.77,371.66 147.21,372.39 147.65,373.00 148.10,373.50 148.54,373.89 148.98,374.17 149.43,374.33 149.87,374.38 150.31,374.32 150.76,374.15 151.20,373.88 151.65,373.49 152.09,373.00 152.53,372.40 152.98,371.70 153.42,370.90 153.86,370.00 154.31,369.01 154.75,367.91 155.19,366.72 155.64,365.45 156.08,364.08 156.52,362.62 156.97,361.08 157.41,359.46 157.85,357.76 158.30,355.98 158.74,354.13 159.18,352.21 159.63,350.21 160.07,348.16 160.52,346.04 160.96,343.86 161.40,341.62 161.85,339.33 162.29,336.99 162.73,334.61 163.18,332.18 163.62,329.70 164.06,327.19 164.51,324.65 164.95,322.08 165.39,319.47 165.84,316.85 166.28,314.20 166.72,311.53 167.17,308.85 167.61,306.16 168.05,303.46 168.50,300.75 168.94,298.04 169.38,295.34 169.83,292.64 170.27,289.94 170.72,287.26 171.16,284.59 171.60,281.94 172.05,279.31 172.49,276.70 172.93,274.11 173.38,271.56 173.82,269.03 174.26,266.54 174.71,264.09 175.15,261.67 175.59,259.30 176.04,256.97 176.48,254.68 176.92,252.45 177.37,250.26 177.81,248.13 178.25,246.05 178.70,244.03 179.14,242.07 179.59,240.17 180.03,238.33 180.47,236.56 180.92,234.85 181.36,233.21 181.80,231.64 182.25,230.14 182.69,228.70 183.13,227.34 183.58,226.05 184.02,224.84 184.46,223.70 184.91,222.64 185.35,221.65 185.79,220.74 186.24,219.90 186.68,219.14 187.12,218.46 187.57,217.86 188.01,217.34 188.45,216.89 188.90,216.52 189.34,216.23 189.79,216.01 190.23,215.87 190.67,215.81 191.12,215.82 191.56,215.91 192.00,216.07 192.45,216.31 192.89,216.61 193.33,216.99 193.78,217.44 194.22,217.96 194.66,218.55 195.11,219.20 195.55,219.92 195.99,220.71 196.44,221.56 196.88,222.46 197.32,223.43 197.77,224.46 198.21,225.54 198.66,226.68 199.10,227.87 199.54,229.11 199.99,230.40 200.43,231.74 200.87,233.12 201.32,234.55 201.76,236.02 202.20,237.52 202.65,239.07 203.09,240.65 203.53,242.26 203.98,243.90 204.42,245.57 204.86,247.27 205.31,248.99 205.75,250.73 206.19,252.50 206.64,254.28 207.08,256.08 207.53,257.88 207.97,259.70 208.41,261.53 208.86,263.37 209.30,265.21 209.74,267.05 210.19,268.89 210.63,270.73 211.07,272.56 211.52,274.39 211.96,276.21 212.40,278.02 212.85,279.81 213.29,281.60 213.73,283.36 214.18,285.11 214.62,286.83 215.06,288.53 215.51,290.21 215.95,291.87 216.39,293.49 216.84,295.09 217.28,296.65 217.73,298.19 218.17,299.68 218.61,301.15 219.06,302.57 219.50,303.96 219.94,305.31 220.39,306.62 220.83,307.88 221.27,309.11 221.72,310.29 222.16,311.42 222.60,312.51 223.05,313.55 223.49,314.54 223.93,315.48 224.38,316.38 224.82,317.22 225.26,318.01 225.71,318.76 226.15,319.45 226.60,320.09 227.04,320.67 227.48,321.21 227.93,321.69 228.37,322.12 228.81,322.50 229.26,322.82 229.70,323.09 230.14,323.31 230.59,323.48 231.03,323.59 231.47,323.65 231.92,323.66 232.36,323.62 232.80,323.53 233.25,323.39 233.69,323.20 234.13,322.96 234.58,322.67 235.02,322.33 235.46,321.95 235.91,321.52 236.35,321.05 236.80,320.53 237.24,319.97 237.68,319.37 238.13,318.72 238.57,318.04 239.01,317.32 239.46,316.56 239.90,315.76 240.34,314.93 240.79,314.06 241.23,313.16 241.67,312.23 242.12,311.28 242.56,310.29 243.00,309.27 243.45,308.23 243.89,307.17 244.33,306.08 244.78,304.97 245.22,303.84 245.67,302.69 246.11,301.52 246.55,300.34 247.00,299.15 247.44,297.94 247.88,296.72 248.33,295.50 248.77,294.26 249.21,293.02 249.66,291.77 250.10,290.52 250.54,289.27 250.99,288.02 251.43,286.77 251.87,285.52 252.32,284.27 252.76,283.03 253.20,281.80 253.65,280.57 254.09,279.36 254.54,278.15 254.98,276.96 255.42,275.78 255.87,274.62 256.31,273.47 256.75,272.34 257.20,271.23 257.64,270.13 258.08,269.06 258.53,268.01 258.97,266.98 259.41,265.98 259.86,265.00 260.30,264.05 260.74,263.12 261.19,262.22 261.63,261.35 262.07,260.50 262.52,259.69 262.96,258.91 263.40,258.16 263.85,257.44 264.29,256.75 264.74,256.10 265.18,255.48 265.62,254.89 266.07,254.34 266.51,253.82 266.95,253.34 267.40,252.89 267.84,252.48 268.28,252.10 268.73,251.76 269.17,251.45 269.61,251.18 270.06,250.95 270.50,250.75 270.94,250.59 271.39,250.47 271.83,250.38 272.27,250.32 272.72,250.30 273.16,250.32 273.61,250.37 274.05,250.45 274.49,250.57 274.94,250.72 275.38,250.90 275.82,251.12 276.27,251.37 276.71,251.65 277.15,251.96 277.60,252.30 278.04,252.67 278.48,253.07 278.93,253.50 279.37,253.95 279.81,254.43 280.26,254.94 280.70,255.48 281.14,256.03 281.59,256.61 282.03,257.22 282.47,257.84 282.92,258.49 283.36,259.15 283.81,259.83 284.25,260.54 284.69,261.25 285.14,261.99 285.58,262.74 286.02,263.50 286.47,264.28 286.91,265.07 287.35,265.87 287.80,266.68 288.24,267.49 288.68,268.32 289.13,269.15 289.57,269.99 290.01,270.83 290.46,271.68 290.90,272.53 291.34,273.38 291.79,274.23 292.23,275.09 292.68,275.94 293.12,276.78 293.56,277.63 294.01,278.47 294.45,279.30 294.89,280.13 295.34,280.95 295.78,281.77 296.22,282.57 296.67,283.37 297.11,284.15 297.55,284.93 298.00,285.69 298.44,286.44 298.88,287.17 299.33,287.89 299.77,288.60 300.21,289.29 300.66,289.96 301.10,290.61 301.55,291.25 301.99,291.87 302.43,292.47 302.88,293.05 303.32,293.61 303.76,294.15 304.21,294.67 304.65,295.17 305.09,295.64 305.54,296.10 305.98,296.53 306.42,296.93 306.87,297.32 307.31,297.68 307.75,298.02 308.20,298.33 308.64,298.62 309.08,298.88 309.53,299.13 309.97,299.34 310.41,299.53 310.86,299.70 311.30,299.85 311.75,299.96 312.19,300.06 312.63,300.13 313.08,300.18 313.52,300.20 313.96,300.20 314.41,300.17 314.85,300.12 315.29,300.05 315.74,299.96 316.18,299.84 316.62,299.70 317.07,299.54 317.51,299.36 317.95,299.15 318.40,298.93 318.84,298.68 319.28,298.42 319.73,298.13 320.17,297.83 320.62,297.51 321.06,297.17 321.50,296.82 321.95,296.44 322.39,296.05 322.83,295.65 323.28,295.23 323.72,294.80 324.16,294.35 324.61,293.89 325.05,293.42 325.49,292.93 325.94,292.44 326.38,291.93 326.82,291.41 327.27,290.89 327.71,290.35 328.15,289.81 328.60,289.27 329.04,288.71 329.48,288.15 329.93,287.59 330.37,287.02 330.82,286.45 331.26,285.87 331.70,285.29 332.15,284.71 332.59,284.14 333.03,283.56 333.48,282.98 333.92,282.40 334.36,281.82 334.81,281.25 335.25,280.68 335.69,280.12 336.14,279.56 336.58,279.00 337.02,278.45 337.47,277.91 337.91,277.37 338.35,276.84 338.80,276.32 339.24,275.81 339.69,275.30 340.13,274.81 340.57,274.33 341.02,273.85 341.46,273.39 341.90,272.94 342.35,272.50 342.79,272.08 343.23,271.67 343.68,271.27 344.12,270.88 344.56,270.51 345.01,270.15 345.45,269.81 345.89,269.48 346.34,269.16 346.78,268.87 347.22,268.58 347.67,268.31 348.11,268.06 348.56,267.83 349.00,267.61 349.44,267.41 349.89,267.22 350.33,267.05 350.77,266.90 351.22,266.76 351.66,266.64 352.10,266.54 352.55,266.45 352.99,266.38 353.43,266.32 353.88,266.29 354.32,266.27 354.76,266.26 355.21,266.27 355.65,266.30 356.09,266.34 356.54,266.40 356.98,266.47 357.42,266.56 357.87,266.67 358.31,266.79 358.76,266.92 359.20,267.07 359.64,267.23 360.09,267.40 360.53,267.59 360.97,267.79 361.42,268.01 361.86,268.23 362.30,268.47 362.75,268.72 363.19,268.98 363.63,269.25 364.08,269.53 364.52,269.83 364.96,270.13 365.41,270.44 365.85,270.76 366.29,271.08 366.74,271.42 367.18,271.76 367.63,272.11 368.07,272.46 368.51,272.82 368.96,273.19 369.40,273.56 369.84,273.94 370.29,274.31 370.73,274.70 371.17,275.08 371.62,275.47 372.06,275.86 372.50,276.26 372.95,276.65 373.39,277.04 373.83,277.44 374.28,277.83 374.72,278.22 375.16,278.62 375.61,279.01 376.05,279.39 376.49,279.78 376.94,280.16 377.38,280.54 377.83,280.92 378.27,281.29 378.71,281.66 379.16,282.02 379.60,282.37 380.04,282.72 380.49,283.07 380.93,283.41 381.37,283.74 381.82,284.06 382.26,284.38 382.70,284.69 383.15,284.99 383.59,285.28 384.03,285.57 384.48,285.84 384.92,286.11 385.36,286.36 385.81,286.61 386.25,286.85 386.70,287.08 387.14,287.29 387.58,287.50 388.03,287.70 388.47,287.88 388.91,288.06 389.36,288.22 389.80,288.37 390.24,288.52 390.69,288.65 391.13,288.77 391.57,288.88 392.02,288.97 392.46,289.06 392.90,289.13 393.35,289.20 393.79,289.25 394.23,289.29 394.68,289.32 395.12,289.34 395.57,289.34 396.01,289.34 396.45,289.33 396.90,289.30 397.34,289.27 397.78,289.22 398.23,289.16 398.67,289.10 399.11,289.02 399.56,288.93 400.00,288.83" fill="none" stroke="#111827" stroke-width="4"/><text x="85" y="58" font-size="24" font-family="DejaVu Sans,Arial,sans-serif">uR(V)</text><text x="425" y="287" font-size="22" font-family="DejaVu Sans,Arial,sans-serif">t(ms)</text><text x="48" y="147.2" font-size="18" font-family="DejaVu Sans,Arial,sans-serif">0,75</text><line x1="500" y1="455" x2="830" y2="455" stroke="#111827" stroke-width="3"/><line x1="500" y1="455" x2="500" y2="65" stroke="#111827" stroke-width="3"/><line x1="500.0" y1="80" x2="500.0" y2="455" stroke="#e5e7eb" stroke-width="1"/><line x1="544.3" y1="80" x2="544.3" y2="455" stroke="#e5e7eb" stroke-width="1"/><line x1="588.6" y1="80" x2="588.6" y2="455" stroke="#e5e7eb" stroke-width="1"/><line x1="632.9" y1="80" x2="632.9" y2="455" stroke="#e5e7eb" stroke-width="1"/><line x1="677.1" y1="80" x2="677.1" y2="455" stroke="#e5e7eb" stroke-width="1"/><line x1="721.4" y1="80" x2="721.4" y2="455" stroke="#e5e7eb" stroke-width="1"/><line x1="765.7" y1="80" x2="765.7" y2="455" stroke="#e5e7eb" stroke-width="1"/><line x1="810.0" y1="80" x2="810.0" y2="455" stroke="#e5e7eb" stroke-width="1"/><line x1="500" y1="280" x2="828" y2="280" stroke="#111827" stroke-width="2"/><polyline points="500.00,121.43 500.44,121.97 500.89,122.70 501.33,123.60 501.77,124.68 502.22,125.94 502.66,127.36 503.10,128.96 503.55,130.72 503.99,132.64 504.43,134.73 504.88,136.97 505.32,139.37 505.77,141.91 506.21,144.60 506.65,147.43 507.10,150.41 507.54,153.51 507.98,156.74 508.43,160.10 508.87,163.58 509.31,167.17 509.76,170.88 510.20,174.69 510.64,178.60 511.09,182.60 511.53,186.70 511.97,190.88 512.42,195.14 512.86,199.48 513.30,203.88 513.75,208.35 514.19,212.87 514.64,217.45 515.08,222.07 515.52,226.74 515.97,231.44 516.41,236.17 516.85,240.92 517.30,245.69 517.74,250.47 518.18,255.26 518.63,260.06 519.07,264.85 519.51,269.62 519.96,274.39 520.40,279.13 520.84,283.85 521.29,288.53 521.73,293.18 522.17,297.79 522.62,302.35 523.06,306.86 523.51,311.31 523.95,315.70 524.39,320.02 524.84,324.27 525.28,328.45 525.72,332.54 526.17,336.55 526.61,340.48 527.05,344.31 527.50,348.04 527.94,351.67 528.38,355.20 528.83,358.62 529.27,361.93 529.71,365.13 530.16,368.21 530.60,371.17 531.04,374.01 531.49,376.72 531.93,379.30 532.37,381.76 532.82,384.08 533.26,386.27 533.71,388.32 534.15,390.23 534.59,392.01 535.04,393.64 535.48,395.13 535.92,396.48 536.37,397.69 536.81,398.76 537.25,399.68 537.70,400.45 538.14,401.09 538.58,401.57 539.03,401.92 539.47,402.12 539.91,402.17 540.36,402.09 540.80,401.86 541.24,401.50 541.69,400.99 542.13,400.35 542.58,399.57 543.02,398.65 543.46,397.61 543.91,396.43 544.35,395.12 544.79,393.69 545.24,392.14 545.68,390.46 546.12,388.66 546.57,386.75 547.01,384.73 547.45,382.59 547.90,380.35 548.34,378.00 548.78,375.56 549.23,373.01 549.67,370.38 550.11,367.65 550.56,364.84 551.00,361.94 551.44,358.97 551.89,355.92 552.33,352.80 552.78,349.61 553.22,346.36 553.66,343.05 554.11,339.69 554.55,336.28 554.99,332.82 555.44,329.32 555.88,325.78 556.32,322.21 556.77,318.62 557.21,314.99 557.65,311.35 558.10,307.69 558.54,304.02 558.98,300.34 559.43,296.66 559.87,292.99 560.31,289.31 560.76,285.65 561.20,282.01 561.65,278.38 562.09,274.77 562.53,271.19 562.98,267.64 563.42,264.13 563.86,260.65 564.31,257.22 564.75,253.83 565.19,250.49 565.64,247.21 566.08,243.98 566.52,240.81 566.97,237.71 567.41,234.67 567.85,231.70 568.30,228.81 568.74,225.99 569.18,223.25 569.63,220.59 570.07,218.02 570.52,215.53 570.96,213.13 571.40,210.83 571.85,208.62 572.29,206.50 572.73,204.48 573.18,202.56 573.62,200.74 574.06,199.02 574.51,197.41 574.95,195.90 575.39,194.50 575.84,193.20 576.28,192.01 576.72,190.94 577.17,189.97 577.61,189.11 578.05,188.36 578.50,187.73 578.94,187.20 579.38,186.79 579.83,186.48 580.27,186.29 580.72,186.20 581.16,186.23 581.60,186.36 582.05,186.61 582.49,186.95 582.93,187.41 583.38,187.97 583.82,188.63 584.26,189.40 584.71,190.27 585.15,191.23 585.59,192.30 586.04,193.46 586.48,194.71 586.92,196.06 587.37,197.49 587.81,199.01 588.25,200.62 588.70,202.31 589.14,204.09 589.59,205.94 590.03,207.86 590.47,209.86 590.92,211.93 591.36,214.07 591.80,216.27 592.25,218.53 592.69,220.85 593.13,223.22 593.58,225.65 594.02,228.13 594.46,230.65 594.91,233.22 595.35,235.82 595.79,238.47 596.24,241.14 596.68,243.85 597.12,246.58 597.57,249.33 598.01,252.11 598.45,254.90 598.90,257.71 599.34,260.52 599.79,263.34 600.23,266.17 600.67,268.99 601.12,271.81 601.56,274.63 602.00,277.43 602.45,280.22 602.89,283.00 603.33,285.76 603.78,288.49 604.22,291.20 604.66,293.88 605.11,296.53 605.55,299.14 605.99,301.72 606.44,304.26 606.88,306.75 607.32,309.20 607.77,311.60 608.21,313.95 608.66,316.25 609.10,318.49 609.54,320.68 609.99,322.80 610.43,324.87 610.87,326.87 611.32,328.80 611.76,330.67 612.20,332.46 612.65,334.19 613.09,335.84 613.53,337.42 613.98,338.92 614.42,340.35 614.86,341.70 615.31,342.97 615.75,344.15 616.19,345.26 616.64,346.28 617.08,347.23 617.53,348.08 617.97,348.86 618.41,349.55 618.86,350.15 619.30,350.67 619.74,351.11 620.19,351.46 620.63,351.72 621.07,351.90 621.52,352.00 621.96,352.01 622.40,351.94 622.85,351.78 623.29,351.54 623.73,351.22 624.18,350.82 624.62,350.34 625.06,349.78 625.51,349.15 625.95,348.43 626.39,347.64 626.84,346.78 627.28,345.84 627.73,344.84 628.17,343.76 628.61,342.61 629.06,341.40 629.50,340.13 629.94,338.79 630.39,337.39 630.83,335.93 631.27,334.42 631.72,332.85 632.16,331.23 632.60,329.56 633.05,327.84 633.49,326.08 633.93,324.27 634.38,322.42 634.82,320.53 635.26,318.60 635.71,316.65 636.15,314.66 636.60,312.64 637.04,310.59 637.48,308.52 637.93,306.43 638.37,304.32 638.81,302.20 639.26,300.06 639.70,297.91 640.14,295.75 640.59,293.59 641.03,291.42 641.47,289.25 641.92,287.08 642.36,284.92 642.80,282.76 643.25,280.62 643.69,278.48 644.13,276.36 644.58,274.25 645.02,272.17 645.46,270.10 645.91,268.06 646.35,266.04 646.80,264.05 647.24,262.09 647.68,260.16 648.13,258.27 648.57,256.41 649.01,254.59 649.46,252.81 649.90,251.08 650.34,249.38 650.79,247.73 651.23,246.13 651.67,244.58 652.12,243.07 652.56,241.62 653.00,240.22 653.45,238.88 653.89,237.59 654.33,236.35 654.78,235.18 655.22,234.06 655.67,233.01 656.11,232.01 656.55,231.07 657.00,230.20 657.44,229.39 657.88,228.65 658.33,227.96 658.77,227.35 659.21,226.79 659.66,226.30 660.10,225.88 660.54,225.52 660.99,225.23 661.43,225.00 661.87,224.84 662.32,224.74 662.76,224.71 663.20,224.74 663.65,224.84 664.09,225.00 664.54,225.22 664.98,225.50 665.42,225.85 665.87,226.26 666.31,226.73 666.75,227.25 667.20,227.84 667.64,228.48 668.08,229.18 668.53,229.93 668.97,230.74 669.41,231.60 669.86,232.51 670.30,233.47 670.74,234.48 671.19,235.54 671.63,236.64 672.07,237.79 672.52,238.98 672.96,240.20 673.40,241.47 673.85,242.78 674.29,244.12 674.74,245.50 675.18,246.91 675.62,248.35 676.07,249.81 676.51,251.31 676.95,252.83 677.40,254.37 677.84,255.93 678.28,257.51 678.73,259.11 679.17,260.73 679.61,262.36 680.06,263.99 680.50,265.64 680.94,267.30 681.39,268.96 681.83,270.62 682.27,272.29 682.72,273.95 683.16,275.61 683.61,277.27 684.05,278.92 684.49,280.57 684.94,282.20 685.38,283.82 685.82,285.43 686.27,287.02 686.71,288.59 687.15,290.15 687.60,291.69 688.04,293.20 688.48,294.69 688.93,296.15 689.37,297.59 689.81,299.00 690.26,300.37 690.70,301.72 691.14,303.03 691.59,304.31 692.03,305.56 692.47,306.76 692.92,307.93 693.36,309.06 693.81,310.15 694.25,311.20 694.69,312.20 695.14,313.17 695.58,314.08 696.02,314.96 696.47,315.79 696.91,316.57 697.35,317.30 697.80,317.99 698.24,318.63 698.68,319.22 699.13,319.76 699.57,320.26 700.01,320.70 700.46,321.09 700.90,321.44 701.34,321.73 701.79,321.97 702.23,322.17 702.68,322.31 703.12,322.40 703.56,322.45 704.01,322.44 704.45,322.38 704.89,322.28 705.34,322.13 705.78,321.93 706.22,321.68 706.67,321.38 707.11,321.04 707.55,320.65 708.00,320.22 708.44,319.74 708.88,319.22 709.33,318.66 709.77,318.05 710.21,317.41 710.66,316.72 711.10,316.00 711.55,315.24 711.99,314.44 712.43,313.61 712.88,312.74 713.32,311.84 713.76,310.90 714.21,309.94 714.65,308.95 715.09,307.93 715.54,306.88 715.98,305.81 716.42,304.71 716.87,303.59 717.31,302.45 717.75,301.29 718.20,300.12 718.64,298.92 719.08,297.71 719.53,296.49 719.97,295.25 720.41,294.01 720.86,292.75 721.30,291.49 721.75,290.22 722.19,288.95 722.63,287.67 723.08,286.39 723.52,285.11 723.96,283.84 724.41,282.56 724.85,281.29 725.29,280.03 725.74,278.77 726.18,277.52 726.62,276.29 727.07,275.06 727.51,273.84 727.95,272.64 728.40,271.46 728.84,270.29 729.28,269.14 729.73,268.01 730.17,266.90 730.62,265.81 731.06,264.74 731.50,263.70 731.95,262.68 732.39,261.69 732.83,260.73 733.28,259.79 733.72,258.88 734.16,258.00 734.61,257.16 735.05,256.34 735.49,255.56 735.94,254.80 736.38,254.09 736.82,253.40 737.27,252.75 737.71,252.14 738.15,251.56 738.60,251.02 739.04,250.52 739.48,250.05 739.93,249.62 740.37,249.23 740.82,248.87 741.26,248.56 741.70,248.28 742.15,248.04 742.59,247.84 743.03,247.68 743.48,247.55 743.92,247.47 744.36,247.42 744.81,247.41 745.25,247.44 745.69,247.51 746.14,247.61 746.58,247.75 747.02,247.93 747.47,248.14 747.91,248.39 748.35,248.68 748.80,249.00 749.24,249.35 749.69,249.74 750.13,250.16 750.57,250.61 751.02,251.09 751.46,251.61 751.90,252.15 752.35,252.73 752.79,253.33 753.23,253.96 753.68,254.62 754.12,255.30 754.56,256.01 755.01,256.74 755.45,257.49 755.89,258.27 756.34,259.06 756.78,259.88 757.22,260.72 757.67,261.57 758.11,262.44 758.56,263.32 759.00,264.22 759.44,265.13 759.89,266.06 760.33,266.99 760.77,267.94 761.22,268.89 761.66,269.85 762.10,270.82 762.55,271.79 762.99,272.77 763.43,273.75 763.88,274.73 764.32,275.71 764.76,276.69 765.21,277.67 765.65,278.65 766.09,279.62 766.54,280.59 766.98,281.55 767.42,282.50 767.87,283.45 768.31,284.38 768.76,285.31 769.20,286.22 769.64,287.13 770.09,288.01 770.53,288.89 770.97,289.75 771.42,290.59 771.86,291.41 772.30,292.22 772.75,293.01 773.19,293.78 773.63,294.53 774.08,295.25 774.52,295.96 774.96,296.64 775.41,297.30 775.85,297.94 776.29,298.55 776.74,299.13 777.18,299.70 777.63,300.23 778.07,300.74 778.51,301.22 778.96,301.67 779.40,302.10 779.84,302.50 780.29,302.87 780.73,303.21 781.17,303.52 781.62,303.80 782.06,304.05 782.50,304.28 782.95,304.47 783.39,304.64 783.83,304.77 784.28,304.88 784.72,304.96 785.16,305.00 785.61,305.02 786.05,305.01 786.49,304.97 786.94,304.90 787.38,304.80 787.83,304.68 788.27,304.52 788.71,304.34 789.16,304.13 789.60,303.90 790.04,303.63 790.49,303.35 790.93,303.03 791.37,302.70 791.82,302.33 792.26,301.95 792.70,301.54 793.15,301.10 793.59,300.65 794.03,300.17 794.48,299.68 794.92,299.16 795.36,298.62 795.81,298.07 796.25,297.50 796.70,296.91 797.14,296.30 797.58,295.68 798.03,295.04 798.47,294.39 798.91,293.73 799.36,293.05 799.80,292.37 800.24,291.67 800.69,290.97 801.13,290.25 801.57,289.53 802.02,288.80 802.46,288.06 802.90,287.32 803.35,286.58 803.79,285.83 804.23,285.08 804.68,284.32 805.12,283.57 805.57,282.82 806.01,282.06 806.45,281.31 806.90,280.57 807.34,279.82 807.78,279.08 808.23,278.35 808.67,277.62 809.11,276.90 809.56,276.18 810.00,275.48" fill="none" stroke="#111827" stroke-width="4"/><text x="495" y="58" font-size="24" font-family="DejaVu Sans,Arial,sans-serif">uC(V)</text><text x="835" y="287" font-size="22" font-family="DejaVu Sans,Arial,sans-serif">t(ms)</text><text x="472" y="127.4" font-size="18" font-family="DejaVu Sans,Arial,sans-serif">6</text><text x="450" y="530" text-anchor="middle" font-size="24" font-family="DejaVu Sans,Arial,sans-serif" direction="rtl">الشكل 6</text>

<line x1="90" y1="141.2" x2="400" y2="141.2" stroke="#2563eb" stroke-width="2" stroke-dasharray="8 6"/>
<text x="110" y="131.2" font-size="18" font-family="DejaVu Sans,Arial,sans-serif" fill="#2563eb">uR(T/4) ≈ 0,75 V</text>
<text x="520" y="110" font-size="18" font-family="DejaVu Sans,Arial,sans-serif" fill="#2563eb">uC(0)=6 V</text>
</svg>