<svg xmlns="http://www.w3.org/2000/svg" viewBox="0 0 900 540" role="img" aria-label="الشكل 3">
<rect width="100%" height="100%" fill="white"/>
<line x1="120.0" y1="75" x2="120.0" y2="470" stroke="#e5e7eb" stroke-width="1"/><line x1="188.0" y1="75" x2="188.0" y2="470" stroke="#e5e7eb" stroke-width="1"/><line x1="256.0" y1="75" x2="256.0" y2="470" stroke="#e5e7eb" stroke-width="1"/><line x1="324.0" y1="75" x2="324.0" y2="470" stroke="#e5e7eb" stroke-width="1"/><line x1="392.0" y1="75" x2="392.0" y2="470" stroke="#e5e7eb" stroke-width="1"/><line x1="460.0" y1="75" x2="460.0" y2="470" stroke="#e5e7eb" stroke-width="1"/><line x1="528.0" y1="75" x2="528.0" y2="470" stroke="#e5e7eb" stroke-width="1"/><line x1="596.0" y1="75" x2="596.0" y2="470" stroke="#e5e7eb" stroke-width="1"/><line x1="664.0" y1="75" x2="664.0" y2="470" stroke="#e5e7eb" stroke-width="1"/><line x1="732.0" y1="75" x2="732.0" y2="470" stroke="#e5e7eb" stroke-width="1"/><line x1="800.0" y1="75" x2="800.0" y2="470" stroke="#e5e7eb" stroke-width="1"/><line x1="120" y1="75.0" x2="800" y2="75.0" stroke="#e5e7eb" stroke-width="1"/><line x1="120" y1="124.4" x2="800" y2="124.4" stroke="#e5e7eb" stroke-width="1"/><line x1="120" y1="173.8" x2="800" y2="173.8" stroke="#e5e7eb" stroke-width="1"/><line x1="120" y1="223.1" x2="800" y2="223.1" stroke="#e5e7eb" stroke-width="1"/><line x1="120" y1="272.5" x2="800" y2="272.5" stroke="#e5e7eb" stroke-width="1"/><line x1="120" y1="321.9" x2="800" y2="321.9" stroke="#e5e7eb" stroke-width="1"/><line x1="120" y1="371.2" x2="800" y2="371.2" stroke="#e5e7eb" stroke-width="1"/><line x1="120" y1="420.6" x2="800" y2="420.6" stroke="#e5e7eb" stroke-width="1"/><line x1="120" y1="470.0" x2="800" y2="470.0" stroke="#e5e7eb" stroke-width="1"/><line x1="120" y1="250" x2="825" y2="250" stroke="#111827" stroke-width="3"/><line x1="120" y1="470" x2="120" y2="55" stroke="#111827" stroke-width="3"/><text x="35" y="62" font-size="25" font-family="DejaVu Sans,Arial,sans-serif">uC(V)</text><text x="830" y="258" font-size="23" font-family="DejaVu Sans,Arial,sans-serif">t(ms)</text><polyline points="120.00,100.00 121.36,100.71 122.73,101.62 124.09,102.74 125.45,104.07 126.81,105.59 128.18,107.31 129.54,109.22 130.90,111.32 132.26,113.60 133.63,116.05 134.99,118.68 136.35,121.48 137.72,124.44 139.08,127.56 140.44,130.83 141.80,134.24 143.17,137.79 144.53,141.48 145.89,145.29 147.25,149.22 148.62,153.27 149.98,157.42 151.34,161.67 152.71,166.02 154.07,170.45 155.43,174.96 156.79,179.54 158.16,184.18 159.52,188.89 160.88,193.64 162.24,198.44 163.61,203.27 164.97,208.13 166.33,213.02 167.70,217.91 169.06,222.82 170.42,227.72 171.78,232.62 173.15,237.50 174.51,242.36 175.87,247.20 177.23,252.00 178.60,256.75 179.96,261.46 181.32,266.12 182.69,270.72 184.05,275.25 185.41,279.70 186.77,284.08 188.14,288.38 189.50,292.58 190.86,296.69 192.22,300.70 193.59,304.61 194.95,308.40 196.31,312.09 197.68,315.65 199.04,319.09 200.40,322.40 201.76,325.59 203.13,328.64 204.49,331.55 205.85,334.32 207.21,336.95 208.58,339.43 209.94,341.76 211.30,343.95 212.67,345.98 214.03,347.86 215.39,349.58 216.75,351.14 218.12,352.55 219.48,353.80 220.84,354.88 222.20,355.81 223.57,356.58 224.93,357.19 226.29,357.65 227.66,357.94 229.02,358.07 230.38,358.05 231.74,357.88 233.11,357.55 234.47,357.07 235.83,356.44 237.19,355.66 238.56,354.73 239.92,353.67 241.28,352.46 242.65,351.11 244.01,349.63 245.37,348.02 246.73,346.28 248.10,344.42 249.46,342.43 250.82,340.33 252.18,338.11 253.55,335.79 254.91,333.36 256.27,330.83 257.64,328.21 259.00,325.49 260.36,322.69 261.72,319.80 263.09,316.84 264.45,313.80 265.81,310.70 267.17,307.54 268.54,304.31 269.90,301.04 271.26,297.72 272.63,294.35 273.99,290.95 275.35,287.52 276.71,284.06 278.08,280.58 279.44,277.08 280.80,273.58 282.16,270.06 283.53,266.55 284.89,263.04 286.25,259.54 287.62,256.05 288.98,252.58 290.34,249.14 291.70,245.73 293.07,242.35 294.43,239.00 295.79,235.70 297.15,232.45 298.52,229.25 299.88,226.10 301.24,223.01 302.61,219.99 303.97,217.03 305.33,214.14 306.69,211.33 308.06,208.60 309.42,205.95 310.78,203.38 312.14,200.90 313.51,198.51 314.87,196.21 316.23,194.01 317.60,191.91 318.96,189.91 320.32,188.01 321.68,186.21 323.05,184.52 324.41,182.94 325.77,181.46 327.13,180.10 328.50,178.85 329.86,177.71 331.22,176.68 332.59,175.77 333.95,174.97 335.31,174.28 336.67,173.71 338.04,173.26 339.40,172.91 340.76,172.69 342.12,172.57 343.49,172.57 344.85,172.67 346.21,172.89 347.58,173.22 348.94,173.65 350.30,174.19 351.66,174.84 353.03,175.59 354.39,176.44 355.75,177.38 357.11,178.43 358.48,179.57 359.84,180.80 361.20,182.12 362.57,183.53 363.93,185.02 365.29,186.59 366.65,188.25 368.02,189.97 369.38,191.77 370.74,193.64 372.10,195.58 373.47,197.58 374.83,199.64 376.19,201.75 377.56,203.92 378.92,206.13 380.28,208.39 381.64,210.69 383.01,213.04 384.37,215.41 385.73,217.82 387.09,220.25 388.46,222.70 389.82,225.18 391.18,227.67 392.55,230.18 393.91,232.69 395.27,235.20 396.63,237.72 398.00,240.24 399.36,242.75 400.72,245.25 402.08,247.73 403.45,250.21 404.81,252.66 406.17,255.08 407.54,257.48 408.90,259.85 410.26,262.19 411.62,264.49 412.99,266.75 414.35,268.97 415.71,271.15 417.07,273.27 418.44,275.35 419.80,277.37 421.16,279.34 422.53,281.25 423.89,283.10 425.25,284.89 426.61,286.61 427.98,288.27 429.34,289.86 430.70,291.38 432.06,292.83 433.43,294.20 434.79,295.50 436.15,296.72 437.52,297.87 438.88,298.94 440.24,299.93 441.60,300.84 442.97,301.67 444.33,302.42 445.69,303.09 447.05,303.67 448.42,304.18 449.78,304.60 451.14,304.94 452.51,305.20 453.87,305.38 455.23,305.47 456.59,305.49 457.96,305.43 459.32,305.28 460.68,305.06 462.04,304.76 463.41,304.39 464.77,303.94 466.13,303.41 467.49,302.82 468.86,302.15 470.22,301.41 471.58,300.61 472.95,299.74 474.31,298.80 475.67,297.80 477.03,296.74 478.40,295.62 479.76,294.45 481.12,293.22 482.48,291.94 483.85,290.61 485.21,289.23 486.57,287.80 487.94,286.34 489.30,284.83 490.66,283.28 492.02,281.70 493.39,280.09 494.75,278.44 496.11,276.77 497.47,275.07 498.84,273.35 500.20,271.61 501.56,269.85 502.93,268.08 504.29,266.30 505.65,264.50 507.01,262.71 508.38,260.90 509.74,259.10 511.10,257.29 512.46,255.50 513.83,253.70 515.19,251.92 516.55,250.15 517.92,248.39 519.28,246.65 520.64,244.92 522.00,243.22 523.37,241.54 524.73,239.89 526.09,238.26 527.45,236.67 528.82,235.10 530.18,233.57 531.54,232.08 532.91,230.62 534.27,229.21 535.63,227.83 536.99,226.50 538.36,225.21 539.72,223.97 541.08,222.77 542.44,221.63 543.81,220.53 545.17,219.48 546.53,218.49 547.90,217.55 549.26,216.66 550.62,215.83 551.98,215.06 553.35,214.34 554.71,213.68 556.07,213.07 557.43,212.53 558.80,212.04 560.16,211.61 561.52,211.24 562.89,210.92 564.25,210.67 565.61,210.48 566.97,210.34 568.34,210.26 569.70,210.24 571.06,210.27 572.42,210.37 573.79,210.52 575.15,210.72 576.51,210.98 577.88,211.29 579.24,211.66 580.60,212.08 581.96,212.55 583.33,213.07 584.69,213.64 586.05,214.25 587.41,214.92 588.78,215.63 590.14,216.38 591.50,217.17 592.87,218.01 594.23,218.88 595.59,219.79 596.95,220.74 598.32,221.73 599.68,222.74 601.04,223.79 602.40,224.86 603.77,225.97 605.13,227.10 606.49,228.25 607.86,229.42 609.22,230.62 610.58,231.83 611.94,233.06 613.31,234.31 614.67,235.56 616.03,236.83 617.39,238.11 618.76,239.39 620.12,240.68 621.48,241.97 622.85,243.27 624.21,244.56 625.57,245.85 626.93,247.13 628.30,248.41 629.66,249.68 631.02,250.95 632.38,252.20 633.75,253.43 635.11,254.65 636.47,255.86 637.84,257.05 639.20,258.22 640.56,259.36 641.92,260.49 643.29,261.59 644.65,262.66 646.01,263.71 647.37,264.73 648.74,265.72 650.10,266.68 651.46,267.61 652.83,268.51 654.19,269.37 655.55,270.20 656.91,270.99 658.28,271.74 659.64,272.46 661.00,273.14 662.36,273.78 663.73,274.39 665.09,274.95 666.45,275.47 667.82,275.95 669.18,276.39 670.54,276.79 671.90,277.15 673.27,277.46 674.63,277.73 675.99,277.96 677.35,278.15 678.72,278.30 680.08,278.41 681.44,278.47 682.81,278.49 684.17,278.47 685.53,278.41 686.89,278.31 688.26,278.17 689.62,277.99 690.98,277.77 692.34,277.52 693.71,277.22 695.07,276.89 696.43,276.53 697.80,276.12 699.16,275.69 700.52,275.22 701.88,274.72 703.25,274.18 704.61,273.62 705.97,273.03 707.33,272.40 708.70,271.75 710.06,271.08 711.42,270.38 712.79,269.66 714.15,268.91 715.51,268.14 716.87,267.35 718.24,266.55 719.60,265.72 720.96,264.88 722.32,264.03 723.69,263.16 725.05,262.28 726.41,261.39 727.78,260.49 729.14,259.59 730.50,258.67 731.86,257.75 733.23,256.83 734.59,255.91 735.95,254.98 737.31,254.05 738.68,253.13 740.04,252.21 741.40,251.29 742.77,250.38 744.13,249.47 745.49,248.58 746.85,247.69 748.22,246.81 749.58,245.94 750.94,245.09 752.30,244.25 753.67,243.43 755.03,242.62 756.39,241.83 757.76,241.05 759.12,240.30 760.48,239.56 761.84,238.85 763.21,238.16 764.57,237.49 765.93,236.84 767.29,236.22 768.66,235.63 770.02,235.05 771.38,234.51 772.75,233.99 774.11,233.50 775.47,233.03 776.83,232.60 778.20,232.19 779.56,231.81 780.92,231.46 782.28,231.14 783.65,230.85 785.01,230.59 786.37,230.36 787.74,230.16 789.10,229.99 790.46,229.85 791.82,229.74 793.19,229.66 794.55,229.61 795.91,229.59 797.27,229.59 798.64,229.63 800.00,229.70" fill="none" stroke="#111827" stroke-width="4"/><text x="330.7" y="278" font-size="19" font-family="DejaVu Sans,Arial,sans-serif">2,8</text><text x="460.0" y="520" text-anchor="middle" font-size="23" font-family="DejaVu Sans,Arial,sans-serif" direction="rtl">الشكل 3</text>
</svg>