<svg xmlns="http://www.w3.org/2000/svg" viewBox="0 0 870 570" role="img"><rect width="100%" height="100%" fill="white"/><g fill="none" stroke="#172033" stroke-width="3"><path d="M240 190 V115 H365 M415 115 H570 V160 M570 288 V360 M570 430 V500 H240 V420 M240 350 V265"/><rect x="221" y="190" width="38" height="75"/><rect x="551" y="360" width="38" height="70"/><circle cx="240" cy="385" r="35"/><path d="M570 160 c32 0 32 32 0 32 c32 0 32 32 0 32 c32 0 32 32 0 32 c32 0 32 32 0 32"/><path d="M365 115 L405 91"/></g><circle cx="365" cy="115" r="4"/><circle cx="415" cy="115" r="4"/><text x="374" y="76" font-family="Arial,sans-serif" font-size="23" fill="#172033">K</text><text x="177" y="231" font-family="Arial,sans-serif" font-size="23" fill="#172033">R₂</text><text x="603" y="224" font-family="Arial,sans-serif" font-size="23" fill="#172033">L</text><text x="600" y="405" font-family="Arial,sans-serif" font-size="23" fill="#172033">R₁</text><line x1="170" y1="420" x2="170" y2="350" stroke="#172033" stroke-width="3"/><polygon points="170,350 176.0,364.0 164.0,364.0" fill="#172033"/><text x="130" y="395" font-family="Arial,sans-serif" font-size="23" fill="#172033">E</text><text x="228" y="369" font-family="Arial,sans-serif" font-size="18" fill="#172033">+</text><text x="230" y="410" font-family="Arial,sans-serif" font-size="18" fill="#172033">−</text><line x1="570" y1="115" x2="675" y2="115" stroke="#172033" stroke-width="3"/><polygon points="675,115 661.0,121.0 661.0,109.0" fill="#172033"/><text x="694" y="123" font-family="Arial,sans-serif" font-size="23" fill="#172033">y₁</text><line x1="570" y1="320" x2="675" y2="320" stroke="#172033" stroke-width="3"/><polygon points="675,320 661.0,326.0 661.0,314.0" fill="#172033"/><text x="694" y="328" font-family="Arial,sans-serif" font-size="23" fill="#172033">y₂</text><line x1="570" y1="500" x2="640" y2="500" stroke="#172033" stroke-width="3"/><line x1="640" y1="477" x2="640" y2="527" stroke="#172033" stroke-width="3"/><line x1="640" y1="478" x2="660" y2="490" stroke="#172033" stroke-width="3"/><line x1="640" y1="487" x2="660" y2="499" stroke="#172033" stroke-width="3"/><line x1="640" y1="496" x2="660" y2="508" stroke="#172033" stroke-width="3"/><line x1="640" y1="505" x2="660" y2="517" stroke="#172033" stroke-width="3"/><line x1="640" y1="514" x2="660" y2="526" stroke="#172033" stroke-width="3"/></svg>